<svg xmlns="http://www.w3.org/2000/svg" version="1.1" viewBox="0 0 173 171" width="173" height="171"><g stroke-width="2" fill="none" stroke-linecap="butt"><path stroke="#a6a19e" d="M 146.71 50.00 Q 145.23 37.28 145.28 25.46 Q 145.29 24.89 145.51 23.36 Q 145.69 22.14 145.41 21.27" data-c-stroke="d2ba72"/><path stroke="#4996e9" d="M 131.23 47.76 Q 133.74 36.38 131.30 25.34" data-c-stroke="c9ae69"/><path stroke="#cfa146" d="M 118.54 42.62 Q 116.67 48.83 116.85 55.33" data-c-stroke="bc9b59"/><path stroke="#a6a19e" d="M99.87 57.01 99.76 40.29M101.47 74.37Q100.17 75.08 100.16 76.25 100.07 92.51 99.72 108.74 99.67 110.78 101.14 111.62" data-c-stroke="d2ba72"/><path stroke="#90e6a6" d="M 86.03 148.82 Q 85.57 141.69 85.90 134.77 Q 86.51 122.22 86.51 122.16 Q 87.01 95.18 86.20 68.20 C 86.03 62.61 85.45 57.05 84.92 51.46" data-c-stroke="e9da8d"/><path stroke="#b33a40" d="M 128.45 54.71 Q 127.62 67.95 128.01 80.75 Q 128.05 81.92 129.32 82.59" data-c-stroke="a98244"/><path stroke="#cfa146" d="M 118.97 94.82 Q 117.55 84.74 117.85 74.93 A 0.82 0.75 -61.1 0 0 117.76 74.56 Q 117.47 74.03 117.04 74.03" data-c-stroke="bc9b59"/><path stroke="#90e6a6" d="M 75.87 128.38 Q 76.79 127.06 76.74 125.44 C 76.00 102.97 75.63 87.67 76.56 68.75 C 76.70 65.93 77.19 62.97 74.95 61.46" data-c-stroke="e9da8d"/><path stroke="#a6a19e" d="M 60.20 135.26 Q 58.47 104.99 58.52 74.51" data-c-stroke="d2ba72"/><path stroke="#cfa146" d="M 42.15 98.05 L 41.19 79.15" data-c-stroke="bc9b59"/><path stroke="#b33a40" d="M 28.29 100.88 Q 27.68 97.21 27.58 93.43 Q 27.55 91.92 25.95 89.77" data-c-stroke="a98244"/><path stroke="#90e6a6" d="M27.42 131.51Q27.5 143.56 28.03 155.48 28.2 159.47 29.55 163.31M22.59 165.55 22.03 132.65" data-c-stroke="e9da8d"/><path stroke="#a6a19e" d="M 31.14 131.79 C 30.25 138.87 30.50 147.17 30.31 152.99 Q 30.16 157.98 30.20 163.01" data-c-stroke="d2ba72"/><path stroke="#4996e9" d="M 18.37 166.70 Q 19.17 151.50 17.44 135.70" data-c-stroke="c9ae69"/><path stroke="#cfa146" d="M 34.07 132.71 Q 33.61 136.36 33.60 140.01 Q 33.58 150.74 34.04 161.45" data-c-stroke="bc9b59"/><path stroke="#b33a40" d="M 39.40 136.39 Q 37.04 147.21 39.04 157.99" data-c-stroke="a98244"/></g><path fill="#34acf2" d="M 146.71 50.00 Q 145.23 37.28 145.28 25.46 Q 145.29 24.89 145.51 23.36 Q 145.69 22.14 145.41 21.27 Q 149.54 19.99 153.55 20.65 A 1.27 1.26 -84.7 0 1 154.62 21.95 C 154.47 26.81 153.47 30.21 152.00 35.81 Q 150.20 42.64 146.71 50.00 Z" data-c-fill="c4a762"/><path fill="#cb73ee" d="M 145.41 21.27 Q 145.69 22.14 145.51 23.36 Q 145.29 24.89 145.28 25.46 Q 145.23 37.28 146.71 50.00 Q 147.15 51.52 145.41 54.76 A 0.90 0.89 24.4 0 1 144.31 55.17 Q 136.79 52.44 131.23 47.76 Q 133.74 36.38 131.30 25.34 L 145.41 21.27 Z" data-c-fill="dfcd82"/><path fill="#5b72a7" d="M 131.30 25.34 Q 133.74 36.38 131.23 47.76 C 125.56 42.85 123.01 37.08 120.73 30.20 A 0.69 0.68 -20.0 0 1 121.13 29.35 L 131.30 25.34 Z" data-c-fill="b38f4f"/><path fill="#34acf2" d="M 118.54 42.62 Q 116.67 48.83 116.85 55.33 Q 108.01 49.59 99.87 57.01 L 99.76 40.29 L 112.26 33.36 A 1.72 1.72 0.0 0 1 114.66 34.15 L 118.54 42.62 Z" data-c-fill="c4a762"/><path fill="#cb73ee" d="M 99.76 40.29 L 99.87 57.01 Q 96.58 61.25 97.55 67.49 Q 98.21 71.73 101.47 74.37 Q 100.17 75.08 100.16 76.25 Q 100.07 92.51 99.72 108.74 Q 99.67 110.78 101.14 111.62 Q 100.60 112.85 100.57 114.01 Q 100.11 133.93 86.03 148.82 Q 85.57 141.69 85.90 134.77 Q 86.51 122.22 86.51 122.16 Q 87.01 95.18 86.20 68.20 C 86.03 62.61 85.45 57.05 84.92 51.46 Q 91.57 45.52 99.76 40.29 Z" data-c-fill="dfcd82"/><path fill="#5b72a7" d="M 128.45 54.71 Q 127.62 67.95 128.01 80.75 Q 128.05 81.92 129.32 82.59 Q 125.22 88.58 118.97 94.82 Q 117.55 84.74 117.85 74.93 A 0.82 0.75 -61.1 0 0 117.76 74.56 Q 117.47 74.03 117.04 74.03 Q 125.54 64.19 116.85 55.33 Q 116.67 48.83 118.54 42.62 Q 122.57 50.21 128.45 54.71 Z" data-c-fill="b38f4f"/><path fill="#cdbdca" d="M 84.92 51.46 C 85.45 57.05 86.03 62.61 86.20 68.20 Q 87.01 95.18 86.51 122.16 Q 86.51 122.22 85.90 134.77 Q 85.57 141.69 86.03 148.82 Q 81.29 154.65 73.70 158.42 A 2.20 2.19 -30.2 0 1 70.90 157.69 C 70.21 156.66 70.56 154.87 71.09 153.78 C 73.88 147.98 76.12 143.05 76.43 136.91 Q 76.55 134.68 76.74 130.01 Q 76.80 128.58 75.87 128.38 Q 76.79 127.06 76.74 125.44 C 76.00 102.97 75.63 87.67 76.56 68.75 C 76.70 65.93 77.19 62.97 74.95 61.46 L 84.92 51.46 Z" data-c-fill="f2e798"/><path fill="#3d579a" d="M 129.32 82.59 Q 128.05 81.92 128.01 80.75 Q 127.62 67.95 128.45 54.71 L 140.84 61.17 A 1.17 1.16 25.9 0 1 141.37 62.69 Q 136.64 73.14 129.32 82.59 Z" data-c-fill="9f7438"/><path fill="#cb73ee" d="M 74.95 61.46 C 77.19 62.97 76.70 65.93 76.56 68.75 C 75.63 87.67 76.00 102.97 76.74 125.44 Q 76.79 127.06 75.87 128.38 C 70.33 129.75 65.29 132.86 60.20 135.26 Q 58.47 104.99 58.52 74.51 Q 63.61 74.57 67.30 70.05 Q 69.20 67.72 74.95 61.46 Z" data-c-fill="dfcd82"/><path fill="#34acf2" d="M117.04 74.03Q117.47 74.03 117.76 74.56A.82.75-61.1 0 1 117.85 74.93Q117.55 84.74 118.97 94.82 111.25 102.44 102.48 109.73 102.08 110.06 101.14 111.62 99.67 110.78 99.72 108.74 100.07 92.51 100.16 76.25 100.17 75.08 101.47 74.37 109.54 79.45 117.04 74.03ZM58.52 74.51Q58.47 104.99 60.2 135.26 56.38 137.87 52.75 138.4A3 2.99 63.2 0 1 50.22 137.56L37.77 125.11A3.48 3.47-62.5 0 1 36.81 122.04Q37.21 119.85 38.63 117.13 40.8 112.99 47.26 99.46A.77.77 0 0 0 46.62 98.36L42.15 98.05 41.19 79.15Q48.21 75.57 58.52 74.51Z" data-c-fill="c4a762"/><path fill="#5b72a7" d="M 41.19 79.15 L 42.15 98.05 Q 35.47 98.61 28.29 100.88 Q 27.68 97.21 27.58 93.43 Q 27.55 91.92 25.95 89.77 Q 32.15 83.15 41.19 79.15 Z" data-c-fill="b38f4f"/><path fill="#3d579a" d="M 25.95 89.77 Q 27.55 91.92 27.58 93.43 Q 27.68 97.21 28.29 100.88 L 20.63 104.14 A 3.19 3.16 32.0 0 1 19.61 104.37 Q 18.98 104.40 18.78 104.36 A 2.29 2.28 -75.8 0 1 16.99 101.35 C 18.46 97.10 22.59 92.68 25.95 89.77 Z" data-c-fill="9f7438"/><path fill="#cdbdca" d="M 27.42 131.51 Q 27.50 143.56 28.03 155.48 Q 28.20 159.47 29.55 163.31 L 22.59 165.55 L 22.03 132.65 Q 24.53 131.48 27.42 131.51 Z" data-c-fill="f2e798"/><path fill="#cb73ee" d="M 31.14 131.79 C 30.25 138.87 30.50 147.17 30.31 152.99 Q 30.16 157.98 30.20 163.01 Q 30.07 163.16 29.55 163.31 Q 28.20 159.47 28.03 155.48 Q 27.50 143.56 27.42 131.51 Q 29.46 131.26 31.14 131.79 Z" data-c-fill="dfcd82"/><path fill="#34acf2" d="M 34.07 132.71 Q 33.61 136.36 33.60 140.01 Q 33.58 150.74 34.04 161.45 L 30.20 163.01 Q 30.16 157.98 30.31 152.99 C 30.50 147.17 30.25 138.87 31.14 131.79 Q 32.74 131.91 34.07 132.71 Z" data-c-fill="c4a762"/><path fill="#cb73ee" d="M 22.03 132.65 L 22.59 165.55 L 18.37 166.70 Q 19.17 151.50 17.44 135.70 L 22.03 132.65 Z" data-c-fill="dfcd82"/><path fill="#5b72a7" d="M39.4 136.39Q37.04 147.21 39.04 157.99 37.3 159.83 34.04 161.45 33.58 150.74 33.6 140.01 33.61 136.36 34.07 132.71 37.62 134.22 39.4 136.39ZM17.44 135.7Q19.17 151.5 18.37 166.7L8.97 168.72A1.9 1.89-14.1 0 1 6.75 167.4Q6.29 165.86 6.75 163.52 9.65 148.55 17.44 135.7Z" data-c-fill="b38f4f"/><path fill="#3d579a" d="M 39.40 136.39 C 45.17 142.60 44.87 151.96 39.04 157.99 Q 37.04 147.21 39.40 136.39 Z" data-c-fill="9f7438"/></svg>