<svg xmlns="http://www.w3.org/2000/svg" version="1.1" viewBox="0 0 740 194" width="740" height="194"><g stroke-width="2" fill="none" stroke-linecap="butt"><path stroke="#c8a455" d="M185.52 35.06C183.94 24.58 184.23 11.77 184.66 2.02M159.3 35.33 159.49 8.96" data-c-stroke="c8a455"/><path stroke="#c39c4d" d="M 551.14 117.28 L 551.37 115.09 A 0.31 0.31 0.0 0 0 550.89 114.80 Q 550.25 115.21 550.09 116.48" data-c-stroke="c39c4d"/><path stroke="#e9d67d" d="M542.03 126.38 541.7 96.91M469.65 118.16 467.52 137.33" data-c-stroke="e9d67d"/><path stroke="#ac7930" d="M 692.07 4.64 L 691.51 22.41" data-c-stroke="ac7930"/><path stroke="#bf9548" d="M 652.99 20.09 L 652.12 2.64" data-c-stroke="bf9548"/><path stroke="#b5863a" d="M663.77 123.85 663.17 140.39M673.27 192.99 670.87 178.29A.65.64-1.7 0 0 670.3 177.76L668.52 177.61" data-c-stroke="b5863a"/><path stroke="#bf9548" d="M 360.34 8.57 L 357.30 26.97" data-c-stroke="bf9548"/><path stroke="#ac7930" d="M314.43 19.82 315.1 2.67M295.56 118.1 293.99 134.39" data-c-stroke="ac7930"/><path stroke="#bf9548" d="M 330.33 144.24 Q 330.94 138.47 331.28 132.75 Q 331.39 130.91 332.35 128.27" data-c-stroke="bf9548"/><path stroke="#c8a455" d="M147.53 97.84 148.08 64.48M130.03 44.6 129.72 22.49" data-c-stroke="c8a455"/><path stroke="#e4cf78" d="M 108.25 163.53 L 107.76 37.30" data-c-stroke="e4cf78"/><path stroke="#dbbf6b" d="M 74.28 148.54 Q 73.16 109.39 73.97 71.46" data-c-stroke="dbbf6b"/><path stroke="#d6b865" d="M 32.83 144.23 L 33.67 185.26" data-c-stroke="d6b865"/><path stroke="#cdab5b" d="M 14.54 191.41 L 13.75 152.00" data-c-stroke="cdab5b"/></g><path fill="#b6883e" d="M 185.52 35.06 C 183.94 24.58 184.23 11.77 184.66 2.02 Q 187.13 0.94 189.83 1.26 Q 193.87 1.74 193.19 6.00 Q 190.83 20.86 185.52 35.06 Z" data-c-fill="b6883e"/><path fill="#e4ce77" d="M 551.14 117.28 L 551.37 115.09 A 0.31 0.31 0.0 0 0 550.89 114.80 Q 550.25 115.21 550.09 116.48 L 542.03 126.38 L 541.70 96.91 Q 545.44 90.00 548.23 82.52 Q 549.40 79.38 549.36 76.23 Q 549.21 63.44 546.04 50.43 Q 545.21 46.99 542.75 43.26 C 534.65 30.96 523.03 21.68 508.65 19.17 Q 481.49 14.43 462.41 33.35 Q 446.34 49.28 445.85 70.98 Q 445.17 100.91 469.65 118.16 L 467.52 137.33 C 451.40 129.46 439.37 115.39 432.69 98.81 Q 430.23 92.67 429.32 86.97 Q 423.12 47.78 449.11 21.45 Q 469.21 1.07 498.71 1.00 Q 528.14 0.93 548.66 21.51 C 561.53 34.41 568.26 49.72 569.65 67.56 Q 569.96 71.50 570.01 85.95 Q 570.10 109.66 569.94 143.44 A 1.18 1.18 0.0 0 1 568.76 144.62 L 553.27 144.62 A 1.82 1.82 0.0 0 1 551.45 142.83 Q 551.29 133.55 551.60 121.50 Q 551.65 119.32 551.14 117.28 Z" data-c-fill="e4ce77"/><path fill="#b6883e" d="M692.07 4.64 691.51 22.41Q672.69 14.54 652.99 20.09L652.12 2.64Q672.3-1.38 692.07 4.64ZM360.34 8.57 357.3 26.97Q337.9 14.67 314.43 19.82L315.1 2.67Q328.47.34 341.3 2.42 350.9 3.98 360.34 8.57Z" data-c-fill="b6883e"/><path fill="#dac06c" d="M 184.66 2.02 C 184.23 11.77 183.94 24.58 185.52 35.06 L 180.54 47.09 A 0.72 0.72 0.0 0 1 179.62 47.48 Q 168.15 43.09 159.30 35.33 L 159.49 8.96 Q 169.73 5.19 180.31 2.61 Q 181.50 2.31 184.66 2.02 Z" data-c-fill="dac06c"/><path fill="#a26a22" d="M 315.10 2.67 L 314.43 19.82 Q 296.30 24.73 285.42 38.60 Q 277.71 48.44 275.09 61.78 Q 272.55 74.67 275.23 87.24 Q 279.21 105.88 295.56 118.10 L 293.99 134.39 Q 283.95 128.00 276.46 119.60 A 0.78 0.77 -65.9 0 0 275.11 120.12 L 275.11 192.44 A 0.63 0.62 -0.0 0 1 274.48 193.06 L 258.94 193.06 A 1.31 1.30 -0.0 0 1 257.63 191.76 Q 257.54 162.62 257.56 72.75 Q 257.57 63.70 258.76 58.33 Q 261.75 44.98 268.58 32.59 Q 270.43 29.23 272.60 26.52 Q 273.84 24.96 277.73 21.34 Q 293.48 6.73 315.10 2.67 Z" data-c-fill="a26a22"/><path fill="#c7a152" d="M 652.12 2.64 L 652.99 20.09 Q 641.54 23.72 633.43 30.68 Q 615.37 46.16 614.53 71.01 C 613.55 100.31 634.70 122.29 663.77 123.85 L 663.17 140.39 Q 641.71 139.28 623.79 126.16 Q 613.25 118.45 607.55 108.93 Q 592.68 84.10 598.52 56.90 Q 604.45 29.30 627.63 13.36 Q 638.58 5.83 652.12 2.64 Z" data-c-fill="c7a152"/><path fill="#a26a22" d="M 673.27 192.99 L 670.87 178.29 A 0.65 0.64 -1.7 0 0 670.30 177.76 L 668.52 177.61 C 683.69 177.63 698.35 173.48 709.46 162.72 Q 715.78 156.59 718.19 147.95 Q 720.16 140.89 720.56 136.30 Q 721.27 128.11 720.71 117.31 A 0.62 0.62 0.0 0 0 719.64 116.92 C 705.04 132.66 684.81 141.44 663.17 140.39 L 663.77 123.85 C 680.13 124.55 695.24 121.14 707.14 109.68 Q 712.38 104.64 715.65 98.38 Q 719.82 90.42 720.56 85.10 Q 721.87 75.81 721.55 67.13 Q 721.21 57.84 717.83 49.62 Q 710.29 31.27 691.51 22.41 L 692.07 4.64 Q 694.95 5.64 697.83 6.65 Q 700.63 7.63 713.57 15.97 Q 722.96 22.03 727.51 29.52 Q 734.86 41.63 738.62 58.18 A 9.50 9.32 -51.9 0 1 738.85 60.25 Q 738.92 108.60 738.50 124.49 C 737.78 151.25 730.16 174.50 704.40 186.38 C 694.94 190.74 683.73 193.84 673.27 192.99 Z" data-c-fill="a26a22"/><path fill="#c7a152" d="M 330.33 144.24 Q 330.94 138.47 331.28 132.75 Q 331.39 130.91 332.35 128.27 C 352.42 126.83 369.23 113.61 377.13 95.46 C 381.65 85.05 382.78 71.98 380.46 61.28 Q 375.84 39.95 357.30 26.97 L 360.34 8.57 Q 379.48 18.93 390.25 37.27 C 398.28 50.94 400.60 67.67 398.38 83.98 Q 395.01 108.67 376.28 126.03 Q 356.97 143.92 330.33 144.24 Z" data-c-fill="c7a152"/><path fill="#b6883e" d="M159.49 8.96 159.3 35.33Q151.24 25.55 147.76 14.02A.35.35 0 0 1 147.96 13.6L159.49 8.96ZM147.53 97.84 148.08 64.48C152.01 52.31 142.63 42.33 130.03 44.6L129.72 22.49 139.45 17.34A.56.56 0 0 1 140.22 17.6C141.68 20.71 143.33 22.97 144.93 26.73 148.22 34.46 151.47 40.26 158.02 44.99Q166.51 51.11 175.86 54.66A1.24 1.23 23.2 0 1 176.54 56.35C169.38 71.27 159.4 86.27 147.53 97.84Z" data-c-fill="b6883e"/><path fill="#dac06c" d="M 129.72 22.49 L 130.03 44.60 Q 118.85 48.59 118.80 59.42 C 118.74 76.14 141.94 80.19 148.08 64.48 L 147.53 97.84 Q 136.63 108.90 124.46 118.51 A 2.47 2.47 0.0 0 0 123.52 120.47 Q 123.64 144.65 108.25 163.53 L 107.76 37.30 Q 117.77 28.90 129.72 22.49 Z" data-c-fill="dac06c"/><path fill="#eedd83" d="M 107.76 37.30 L 108.25 163.53 Q 102.00 171.78 93.22 177.47 C 90.73 179.08 88.17 180.78 85.33 179.61 A 1.64 1.59 -3.2 0 1 84.56 178.94 Q 82.93 176.22 84.40 173.66 Q 90.98 162.21 91.87 150.25 C 92.09 147.39 92.63 144.16 92.18 140.99 A 0.43 0.43 0.0 0 0 91.57 140.66 L 74.28 148.54 Q 73.16 109.39 73.97 71.46 Q 86.63 57.23 99.84 44.09 Q 103.44 40.52 107.76 37.30 Z" data-c-fill="eedd83"/><path fill="#c7a152" d="M 73.97 71.46 Q 73.16 109.39 74.28 148.54 L 62.46 154.45 A 1.68 1.67 33.9 0 1 61.57 154.62 Q 59.30 154.45 57.81 152.92 Q 47.26 142.19 41.84 137.08 Q 38.82 134.23 40.87 130.12 Q 47.12 117.66 53.38 105.13 Q 53.87 104.16 54.05 103.29 A 0.61 0.60 7.9 0 0 53.50 102.57 Q 43.60 101.84 33.72 104.52 C 29.49 105.67 24.37 108.57 20.21 110.19 C 17.05 111.43 14.14 109.50 14.72 105.97 Q 15.00 104.28 17.38 100.88 Q 28.78 84.57 48.11 76.12 Q 60.97 70.50 73.97 71.46 Z" data-c-fill="c7a152"/><path fill="#eedd83" d="M 541.70 96.91 L 542.03 126.38 Q 530.68 136.97 514.42 141.16 Q 489.76 147.52 467.52 137.33 L 469.65 118.16 Q 475.46 122.22 479.89 124.12 Q 483.06 125.48 487.77 126.04 Q 516.07 129.41 534.11 108.12 Q 537.23 104.43 541.70 96.91 Z" data-c-fill="eedd83"/><path fill="#a26a22" d="M 551.14 117.28 Q 550.83 116.12 550.09 116.48 Q 550.25 115.21 550.89 114.80 A 0.31 0.31 0.0 0 1 551.37 115.09 L 551.14 117.28 Z" data-c-fill="a26a22"/><path fill="#b6883e" d="M 295.56 118.10 Q 311.79 129.73 332.35 128.27 Q 331.39 130.91 331.28 132.75 Q 330.94 138.47 330.33 144.24 Q 310.45 144.67 293.99 134.39 L 295.56 118.10 Z" data-c-fill="b6883e"/><path fill="#e4ce77" d="M 32.83 144.23 L 33.67 185.26 Q 24.64 189.19 14.54 191.41 L 13.75 152.00 Q 20.42 143.23 32.83 144.23 Z" data-c-fill="e4ce77"/><path fill="#c7a152" d="M33.67 185.26 32.83 144.23Q47.6 148.14 49.7 160.84 51.18 169.76 46.73 176.3 42.53 182.51 33.67 185.26ZM668.52 177.61 670.3 177.76A.65.64-1.7 0 1 670.87 178.29L673.27 192.99Q659.79 193.41 655.56 192.92 640 191.1 626.37 183.87C613.5 177.03 605.03 165.22 599.01 152.2A.43.43 0 0 1 599.28 151.61Q600.8 151.18 603 151.14 610.53 150.99 616.45 151.19A2.35 2.35 0 0 1 618.43 152.39Q626.96 167.48 643.12 173.66 654.31 177.94 668.52 177.61Z" data-c-fill="c7a152"/><path fill="#b6883e" d="M 13.75 152.00 L 14.54 191.41 Q 9.16 193.28 3.54 192.90 A 1.60 1.59 69.9 0 1 2.49 192.41 Q 0.97 190.83 1.35 188.53 Q 3.10 177.81 8.46 162.66 Q 10.66 156.46 13.75 152.00 Z" data-c-fill="b6883e"/></svg>